<svg xmlns="http://www.w3.org/2000/svg" version="1.1" xmlns:xlink="http://www.w3.org/1999/xlink" xmlns:svgjs="http://svgjs.com/svgjs" width="1440" height="560" preserveAspectRatio="none" viewBox="0 0 1440 560"><g mask="url(&quot;#SvgjsMask1044&quot;)" fill="none"><rect width="1440" height="560" x="0" y="0" fill="rgba(111, 66, 193, 1)"></rect><path d="M0,502.331C127.326,528.916,261.429,647.128,373.947,581.872C484.95,517.495,432.193,338.44,484.575,221.298C536.336,105.546,678.085,29.356,677.715,-97.441C677.342,-225.175,584.402,-340.973,482.709,-418.27C389.084,-489.434,259.845,-467.531,147.048,-500.799C34.064,-534.122,-64.403,-635.264,-180.226,-613.793C-297.511,-592.051,-379.587,-486.234,-450.185,-390.087C-516.788,-299.38,-548.497,-192.377,-570.67,-82.05C-594.001,34.036,-638.42,161.69,-582.001,265.791C-525.9,369.305,-394.54,399.862,-285.465,444.193C-193.643,481.512,-97.024,482.073,0,502.331" fill="#482a7f"></path><path d="M1440 1237.591C1564.061 1225.519 1646.217 1110.716 1745.434 1035.2649999999999 1836.062 966.346 1952.4389999999999 919.137 1996.7060000000001 814.239 2040.646 710.116 2005.549 592.324 1978.6779999999999 482.55 1953.971 381.616 1904.434 293.732 1847.945 206.51299999999998 1782.734 105.82600000000002 1729.946-9.90300000000002 1623.683-65.56700000000001 1508.221-126.04899999999998 1358.1779999999999-171.65200000000004 1243.189-110.27599999999995 1126.713-48.105999999999995 1149.192 133.317 1063.267 233.55900000000003 978.101 332.91499999999996 768.31 331.26800000000003 753.278 461.264 738.08 592.689 940.066 643.149 1002.409 759.841 1058.673 865.154 1013.168 1010.626 1093.815 1098.674 1179.534 1192.259 1313.688 1249.882 1440 1237.591" fill="#a386d7"></path></g><defs><mask id="SvgjsMask1044"><rect width="1440" height="560" fill="#ffffff"></rect></mask></defs></svg>