<?xml version="1.0" standalone="no"?>
<!DOCTYPE svg PUBLIC "-//W3C//DTD SVG 20010904//EN"
 "http://www.w3.org/TR/2001/REC-SVG-20010904/DTD/svg10.dtd">
<svg version="1.0" xmlns="http://www.w3.org/2000/svg"
 width="1091.000000pt" height="493.000000pt" viewBox="0 0 1091.000000 493.000000"
 preserveAspectRatio="xMidYMid meet">

<g transform="translate(0.000000,493.000000) scale(0.100000,-0.100000)"
fill="#fff" stroke="none">
<path d="M8555 4435 c-62 -18 -124 -53 -158 -89 -18 -19 -176 -275 -351 -571
-176 -295 -326 -545 -335 -555 -9 -10 -101 -48 -206 -85 -630 -223 -832 -293
-1110 -385 -170 -57 -315 -105 -321 -107 -6 -2 -91 94 -189 214 -99 120 -215
260 -258 311 -91 107 -76 104 -246 50 -217 -69 -1060 -431 -1635 -702 -131
-62 -166 -67 -216 -33 -31 20 -41 45 -141 330 -60 170 -113 315 -119 322 -7 8
-28 19 -47 26 -62 20 -136 4 -288 -65 -77 -35 -234 -101 -350 -146 -548 -216
-824 -338 -927 -408 -164 -112 -241 -92 -242 63 0 60 5 70 382 818 210 417
382 769 382 783 0 84 -249 35 -617 -123 l-82 -35 -79 -127 c-447 -717 -742
-1376 -742 -1659 0 -111 50 -218 124 -266 59 -39 110 -49 211 -43 115 6 200
35 415 142 213 107 416 195 775 338 321 128 793 307 810 307 6 0 50 -57 97
-127 255 -379 328 -441 506 -431 71 4 97 13 347 120 567 244 1461 621 1480
625 16 3 58 -48 220 -267 110 -149 204 -269 210 -267 37 14 1678 447 1681 444
2 -2 -20 -46 -49 -98 -257 -454 -390 -705 -394 -744 -7 -60 15 -214 36 -250
13 -23 24 -30 47 -30 27 0 50 32 412 575 210 316 386 576 391 578 4 1 181 -86
392 -194 211 -108 488 -249 614 -313 365 -187 1116 -549 1162 -561 30 -8 49
-8 63 0 48 26 54 98 12 156 -44 61 -166 127 -912 493 -337 165 -676 344 -1015
534 -60 34 -94 58 -85 61 19 7 90 30 806 265 319 105 592 199 605 210 27 21
73 100 83 143 15 63 -84 85 -246 54 -62 -12 -422 -117 -1032 -302 -82 -25
-150 -44 -151 -42 -1 2 78 129 177 283 295 462 278 431 278 495 -1 109 -36
227 -81 269 -29 27 -48 30 -94 16z"/>
<path d="M4215 1328 c17 -6 33 -16 37 -22 4 -6 8 -128 8 -272 0 -278 -2 -289
-50 -297 -14 -2 64 -5 172 -6 221 -1 209 -5 222 77 7 50 -3 54 -24 9 -13 -27
-23 -34 -62 -41 -66 -13 -129 2 -145 34 -14 28 -19 475 -5 497 4 6 23 16 42
21 28 8 9 10 -95 10 -104 0 -124 -2 -100 -10z"/>
<path d="M4693 1330 c57 -17 57 -17 57 -219 0 -254 19 -314 113 -363 60 -32
194 -32 254 0 47 24 88 73 105 123 6 19 14 126 17 239 l6 205 35 12 c31 11 23
12 -75 11 -91 0 -104 -2 -77 -11 20 -6 34 -18 38 -32 3 -12 4 -115 2 -228 -3
-225 -5 -231 -72 -281 -40 -31 -130 -29 -174 2 -62 45 -67 63 -70 305 l-3 217
33 15 c31 13 25 14 -92 14 -84 -1 -116 -3 -97 -9z"/>
<path d="M5470 1328 c22 -9 37 -22 41 -38 9 -32 11 -408 2 -479 -5 -47 -9 -55
-37 -67 -28 -12 -19 -13 94 -13 100 1 119 3 95 11 -53 19 -55 23 -55 134 l0
104 44 0 44 0 68 -96 c101 -143 127 -159 244 -152 51 4 53 5 23 12 -45 12 -98
60 -188 171 l-77 95 41 45 c23 25 46 57 51 71 16 41 12 106 -10 141 -35 58
-66 67 -250 70 -142 3 -160 1 -130 -9z m251 -45 c16 -9 36 -33 45 -51 22 -47
15 -142 -13 -180 -18 -24 -27 -27 -79 -27 l-59 0 -3 138 -3 137 42 0 c22 0 54
-8 70 -17z"/>
<path d="M6125 1326 l40 -12 3 -259 c1 -143 0 -270 -3 -282 -3 -12 -17 -26
-32 -31 -21 -8 2 -10 97 -10 100 0 118 2 90 10 -19 5 -38 15 -42 21 -4 7 -8
72 -8 145 l0 132 89 -102 c111 -129 168 -184 204 -197 16 -6 63 -11 105 -10
l77 0 -55 21 c-46 17 -75 41 -174 141 -65 67 -130 136 -144 155 l-25 33 109
110 c83 84 121 114 159 129 l50 19 -104 0 c-89 1 -102 -1 -91 -14 19 -23 5
-46 -100 -156 l-99 -104 0 115 c-1 63 3 120 7 127 4 7 19 16 32 22 18 7 -8 10
-100 10 -113 -1 -121 -2 -85 -13z"/>
<path d="M3202 1048 l3 -53 375 0 375 0 0 50 0 50 -378 3 -378 2 3 -52z"/>
<path d="M6910 1045 l0 -55 375 0 375 0 0 55 0 55 -375 0 -375 0 0 -55z"/>
</g>
</svg>
